<?xml version="1.0" encoding="UTF-8"?>
<svg width="98px" height="30px" viewBox="0 0 98 30" version="1.1" xmlns="http://www.w3.org/2000/svg" xmlns:xlink="http://www.w3.org/1999/xlink">
    <title>Branding / Logo / Varzesh3@1.5x</title>
    <g id="Branding-/-Logo-/-Varzesh3" stroke="none" stroke-width="1" fill="none" fill-rule="evenodd">
        <g id="Asset-1" transform="translate(73.000000, 3.000000)">
            <path d="M18.1014151,20.2055288 L20.7323113,21.5396635 C24.6014151,13.1388221 18.8384434,6.59615385 15.5294811,5.19350962 C15.5294811,5.19350962 17.8909198,11.8641827 18.6615566,13.7433894 C19.4516509,15.672476 19.1379717,18.171875 18.1014151,20.2055288 Z" id="Path" fill="#E74436"/>
            <path d="M22.4941038,11.3305288 L25,9.76322115 C20.0571934,1.96754808 11.5595519,3.48557692 8.63974057,5.60096154 C8.63974057,5.60096154 15.4398585,7.09194712 17.4133255,7.42247596 C19.4375,7.76141827 21.3514151,9.35637019 22.4941038,11.3305288 Z" id="Path" fill="#2F363D"/>
            <path d="M16.7788915,2.99278846 L16.6745283,0 C7.58490566,0.540865385 4.68985849,8.82211538 5.05837264,12.4549279 C5.05837264,12.4549279 9.68337264,7.15985577 10.9380896,5.57211538 C12.2252358,3.94471154 14.5300708,3.03365385 16.7788915,2.99278846 Z" id="Path" fill="#4383F1"/>
            <path d="M6.58608491,3.515625 L3.96580189,2.15985577 C0.0300707547,10.5288462 5.74115566,17.1189904 9.03891509,18.5480769 C9.03891509,18.5480769 6.73054245,11.8605769 5.97287736,9.97295673 C5.19988208,8.03786058 5.53301887,5.54086538 6.58608491,3.515625 Z" id="Path" fill="#35A655"/>
            <path d="M2.47228774,12.8058894 L0,14.4230769 C5.09257075,22.1153846 13.5613208,20.4272837 16.4369104,18.250601 C16.4369104,18.250601 9.60849057,16.8984375 7.62912736,16.6081731 C5.60141509,16.311899 3.65566038,14.7566106 2.47228774,12.8058894 Z" id="Path" fill="#F8BA06"/>
            <ellipse id="Oval" fill="#757575" fill-rule="nonzero" cx="12.4068396" cy="11.9723558" rx="7.35082547" ry="7.4921875"/>
            <path d="M7.71580189,21.0054087 L7.71580189,24 C16.8189858,23.7896635 20,15.6165865 19.7582547,11.9723558 C19.7582547,11.9723558 14.9516509,17.0973558 13.6426887,18.6382212 C12.3001179,20.21875 9.96462264,21.0456731 7.71580189,21.0054087 Z" id="Path" fill="#757575"/>
            <ellipse id="Oval" fill="#FFFFFF" fill-rule="nonzero" cx="12.4068396" cy="11.9723558" rx="4.3879717" ry="4.47235577"/>
            <path d="M14.5518868,11.8623798 C14.5605255,12.1659935 14.4572339,12.4618867 14.2623821,12.6917067 C14.0681682,12.9221566 13.7819911,13.0505402 13.4840802,13.0408654 C13.2841986,13.0360525 13.089759,12.9735355 12.9233491,12.8605769 C12.7928094,12.7884355 12.6811862,12.6853832 12.5978774,12.5600962 C12.5380932,12.6762549 12.4553864,12.7785574 12.3549528,12.8605769 C12.2475131,12.9649993 12.1069745,13.0268147 11.9587264,13.0348558 C11.6835692,13.0348558 11.4943003,12.9767628 11.3909198,12.8605769 C11.4074292,13.0300481 11.4215802,13.3167067 11.4339623,13.71875 C11.4457547,14.1358173 11.4431997,14.4050481 11.4262972,14.5264423 L10.8012972,14.5264423 C10.8107311,14.40625 10.8160377,14.2680288 10.8160377,14.1057692 C10.8082707,13.4132187 10.7568678,12.7218917 10.6621462,12.0360577 C10.5509041,11.1834936 10.4176494,10.5108173 10.2623821,10.0180288 L10.8266509,9.76021635 C11.0434428,10.384712 11.1942567,11.0309965 11.276533,11.688101 C11.3358884,12.1268029 11.5216195,12.3461538 11.8337264,12.3461538 C11.952635,12.3445599 12.0605177,12.2748195 12.1126179,12.1658654 C12.172473,12.0636685 12.2032967,11.9465331 12.2016509,11.827524 C12.2012415,11.7822899 12.1965021,11.7372044 12.1875,11.6929087 L11.8626179,10.0012019 L12.4911557,9.79567308 L12.8266509,11.46875 C12.9390723,12.0296474 13.1385613,12.3100962 13.4251179,12.3100962 C13.7002752,12.3100962 13.8378538,12.1235978 13.8378538,11.750601 C13.8378538,11.5570913 13.771816,11.2738381 13.6397406,10.9008413 C13.549512,10.6203367 13.4263717,10.3519669 13.2729953,10.1015625 L13.8555425,9.81430288 C14.0572862,10.1189068 14.2160688,10.4508732 14.3272406,10.8004808 C14.4773978,11.2247596 14.5522799,11.578726 14.5518868,11.8623798 Z" id="Path" fill="#757575" fill-rule="nonzero"/>
        </g>
        <path d="M59.1163634,8.63260026 L59.1163634,22.0666235 C59.1163634,23.8320397 58.4895044,25.3098318 57.2357865,26.5 L57.2357865,26.5 L55.5755897,25.0271669 C56.4571101,24.1841311 56.8978703,23.0435533 56.8978703,21.6054334 L56.8978703,21.6054334 L56.8978703,8.63260026 L59.1163634,8.63260026 Z M54.5618412,8.63260026 L54.5618412,22.0666235 C54.5618412,23.8320397 53.9349823,25.3098318 52.6812643,26.5 L52.6812643,26.5 L51.0210675,25.0271669 C51.9025879,24.1841311 52.3433482,23.0435533 52.3433482,21.6054334 L52.3433482,21.6054334 L52.3433482,8.63260026 L54.5618412,8.63260026 Z M68.9893921,8.64747736 L69.0040841,22.0517464 C69.0040841,23.7133146 68.4488042,25.1201016 67.3382444,26.2721075 L67.1235072,26.4851229 L65.4633104,25.0122898 C66.3448308,24.169254 66.7855911,23.0832255 66.7855911,21.7542044 C65.0323449,21.7542044 63.5435548,21.10953 62.3192209,19.8201811 C61.094887,18.5308323 60.48272,16.9935317 60.48272,15.2082794 C60.48272,13.403191 61.102233,11.8584519 62.3412589,10.5740621 C63.507401,9.36522462 64.9143089,8.72525183 66.5619828,8.65414374 L66.8737431,8.64747736 L68.9893921,8.64747736 Z M32.1712225,8.63260026 L32.1712225,18.1688228 C32.1712225,19.3589909 32.5801501,20.3681544 33.3980051,21.1963131 C34.2158602,22.0244718 35.212468,22.4385511 36.3878285,22.4385511 C37.6415465,22.4385511 38.6650896,21.98232 39.458458,21.0698577 C40.232237,20.1970677 40.6191266,19.1209573 40.6191266,17.8415265 L40.6191266,17.8415265 L40.6191266,8.63260026 L42.8376196,8.63260026 L42.8376196,18.3771022 C42.8376196,19.1705476 43.0677944,19.5672704 43.528144,19.5672704 C43.8611628,19.5672704 44.0717482,19.4631307 44.1599003,19.2548512 C44.2088736,19.1358344 44.2333603,18.8432514 44.2333603,18.3771022 L44.2333603,18.3771022 L44.2333603,8.63260026 L46.4518533,8.63260026 L46.4518533,18.3771022 C46.4518533,18.8234153 46.4812374,19.1159983 46.5400054,19.2548512 C46.6281574,19.4631307 46.8240509,19.5672704 47.1276857,19.5672704 C47.4900885,19.5672704 47.715366,19.4482536 47.803518,19.2102199 C47.8296371,19.1396914 47.8441477,18.9085147 47.8470499,18.5166898 L47.8470499,18.5166898 L47.847594,8.63260026 L50.0660871,8.63260026 L50.0660871,18.198577 C50.0660871,19.1903838 49.816323,20.0135834 49.3167947,20.6681759 C48.7682931,21.3921949 48.0190008,21.7542044 47.0689176,21.7542044 C46.2265759,21.7542044 45.643793,21.6252695 45.3205688,21.3673997 C44.8993979,21.6252695 44.3264097,21.7542044 43.601604,21.7542044 C42.8180303,21.7542044 42.2499393,21.6153514 41.8973312,21.3376455 C40.6338186,23.5692109 38.7973177,24.6849935 36.3878285,24.6849935 C34.6051984,24.6849935 33.0870243,24.0502372 31.8333064,22.7807245 C30.5795884,21.5112117 29.9527295,19.9739112 29.9527295,18.1688228 L29.9527295,18.1688228 L29.9527295,8.63260026 L32.1712225,8.63260026 Z M15.0403424,21.7542044 C13.188862,21.6955717 12.263553,20.565653 12.263553,18.3622251 L12.263553,18.3622251 L12.263553,15.2826649 C12.263553,14.1520052 11.8497282,13.1453213 11.0220784,12.2626132 C10.1944287,11.3799051 9.22720492,10.9385511 8.12040706,10.9385511 C6.92545716,10.9385511 5.91905468,11.365028 5.10119962,12.2179819 C4.28334457,13.0709357 3.87441704,14.1024148 3.87441704,15.3124191 C3.87441704,16.5323415 4.2808959,17.546464 5.09385362,18.3547865 C5.90681134,19.1631091 6.91566249,19.5672704 8.12040706,19.5672704 L8.12040706,19.5672704 L10.2213641,19.5672704 L10.2213641,21.7542044 L8.14979108,21.7542044 C6.35736622,21.7542044 4.83429483,21.119448 3.5805769,19.8499353 C2.32685897,18.5804226 1.7,17.038163 1.7,15.2231565 C1.7,13.398232 2.3244103,11.8460543 3.57323089,10.5666235 C4.82205149,9.28719276 6.34757155,8.64747736 8.14979108,8.64747736 C9.65817046,8.64747736 11.0294245,9.15825787 12.263553,10.1798189 L12.263553,10.1798189 L12.263553,8.63260026 L14.4673541,8.63260026 L14.4673541,18.5705045 C14.4673541,19.2350151 14.7073235,19.5672704 15.1872624,19.5672704 C15.6574067,19.5672704 15.8924788,19.3193187 15.8924788,18.8234153 L15.8924788,18.8234153 L15.8924788,8.63260026 L18.1109718,8.63260026 L18.1109718,18.3622251 C18.1109718,19.1655886 18.3362493,19.5672704 18.7868042,19.5672704 C19.266743,19.5672704 19.5067125,19.1705476 19.5067125,18.3771022 L19.5067125,18.3771022 L19.5067125,8.63260026 L21.7252056,8.63260026 L21.7252056,18.3771022 C21.7252056,19.1705476 21.950483,19.5672704 22.4010379,19.5672704 C22.8809768,19.5672704 23.1209462,19.1655886 23.1209462,18.3622251 L23.1209462,18.3622251 L23.1209462,8.63260026 L25.3394393,8.63260026 L25.3394393,18.198577 C25.3394393,19.1903838 25.0896752,20.0135834 24.5901469,20.6681759 C24.0416453,21.3921949 23.292353,21.7542044 22.3422698,21.7542044 C21.4999281,21.7542044 20.9171452,21.6252695 20.593921,21.3673997 C20.1727501,21.6252695 19.5752752,21.7542044 18.8014962,21.7542044 C18.1158692,21.7542044 17.5134969,21.5310479 16.9943793,21.0847348 C16.4752617,21.5310479 15.8728894,21.7542044 15.1872624,21.7542044 L15.334,21.748 L15.3341825,21.7542044 L15.0403424,21.7542044 Z M66.770899,10.8344114 C65.7130745,10.8344114 64.7629914,11.293122 63.9206497,12.2105433 C63.0783079,13.1279646 62.6571371,14.12721 62.6571371,15.2082794 C62.6571371,16.3984476 63.0489239,17.4150496 63.8324976,18.2580854 C64.5729748,19.0726894 65.4755646,19.5071448 66.5402672,19.5614518 L66.770899,19.5672704 L66.770899,10.8344114 Z M53.4452487,5.61254851 C53.7292942,5.61254851 53.9741609,5.71668823 54.179849,5.92496766 C54.3855371,6.13324709 54.4883812,6.38119879 54.4883812,6.66882277 C54.4883812,6.95644674 54.3855371,7.20191893 54.179849,7.40523933 C53.9741609,7.60855972 53.7292942,7.71021992 53.4452487,7.71021992 C53.1709979,7.71021992 52.9310284,7.60608021 52.7253403,7.39780078 C52.5196522,7.18952135 52.4168082,6.94652868 52.4168082,6.66882277 C52.4168082,6.38119879 52.5172036,6.13324709 52.7179943,5.92496766 C52.9187851,5.71668823 53.1612032,5.61254851 53.4452487,5.61254851 Z M46.6575414,5.59767141 C46.9415869,5.59767141 47.1864537,5.70181113 47.3921418,5.91009056 C47.5978299,6.11836999 47.7006739,6.36632169 47.7006739,6.65394567 C47.7006739,6.94156964 47.5978299,7.18704183 47.3921418,7.39036223 C47.1864537,7.59368262 46.9415869,7.69534282 46.6575414,7.69534282 C46.3832907,7.69534282 46.1433212,7.5912031 45.9376331,7.38292367 C45.731945,7.17464424 45.629101,6.93165157 45.629101,6.65394567 C45.629101,6.36632169 45.7294963,6.11836999 45.9302871,5.91009056 C46.1310779,5.70181113 46.373496,5.59767141 46.6575414,5.59767141 Z M44.1305162,5.59767141 C44.4145617,5.59767141 44.6594285,5.70181113 44.8651166,5.91009056 C45.0708047,6.11836999 45.1736487,6.36632169 45.1736487,6.65394567 C45.1736487,6.94156964 45.0708047,7.18704183 44.8651166,7.39036223 C44.6594285,7.59368262 44.4145617,7.69534282 44.1305162,7.69534282 C43.8562654,7.69534282 43.616296,7.5912031 43.4106079,7.38292367 C43.2049198,7.17464424 43.1020758,6.93165157 43.1020758,6.65394567 C43.1020758,6.36632169 43.2024711,6.11836999 43.4032619,5.91009056 C43.6040527,5.70181113 43.8464708,5.59767141 44.1305162,5.59767141 Z M45.3499528,3.5 C45.6339983,3.5 45.8788651,3.60413972 46.0845532,3.81241915 C46.2902413,4.02069858 46.3930853,4.26865028 46.3930853,4.55627426 C46.3930853,4.84389823 46.2902413,5.08937042 46.0845532,5.29269082 C45.8788651,5.49601121 45.6339983,5.59767141 45.3499528,5.59767141 C45.075702,5.59767141 44.8357326,5.49353169 44.6300445,5.28525226 C44.4243564,5.07697283 44.3215123,4.83398016 44.3215123,4.55627426 C44.3215123,4.26865028 44.4219077,4.02069858 44.6226985,3.81241915 C44.8234892,3.60413972 45.0659074,3.5 45.3499528,3.5 Z" id="Combined-Shape" fill="#757575" fill-rule="nonzero"/>
    </g>
</svg>